<mxfile host="app.diagrams.net" modified="2023-08-10T12:56:32.859Z" agent="Mozilla/5.0 (Windows NT 10.0; Win64; x64) AppleWebKit/537.36 (KHTML, like Gecko) Chrome/115.0.0.0 Safari/537.36 Edg/115.0.1901.200" version="21.3.5" etag="RWPW5XKZ4DB4KgUqa27q" type="github">
  <diagram name="페이지-1" id="i2LF9oi2Shz5mbuaD2tZ">
    <mxGraphModel>
      <root>
        <mxCell id="0" />
        <mxCell id="1" parent="0" />
      </root>
    </mxGraphModel>
  </diagram>
</mxfile>
